<svg xmlns="http://www.w3.org/2000/svg" viewBox="0 0 320 220" role="img" aria-labelledby="title">
  <title id="title">お客様の写真イメージ</title>
  <defs>
    <linearGradient id="bg" x1="0" x2="1" y1="0" y2="1">
      <stop offset="0" stop-color="#fff7f4"/>
      <stop offset="1" stop-color="#dbe8ee"/>
    </linearGradient>
  </defs>
  <rect width="320" height="220" fill="url(#bg)"/>
  <circle cx="188" cy="82" r="38" fill="#f1c0af"/>
  <path d="M142 83c4-42 34-61 72-42 21 11 27 35 16 63-28-2-61-3-88-21z" fill="#6b4a3e"/>
  <path d="M83 220c12-57 53-91 106-91s91 34 106 91z" fill="#f7fbfc"/>
  <path d="M132 151c18 20 75 20 94 0 25 13 44 36 52 69H83c8-33 26-56 49-69z" fill="#ffffff"/>
  <path d="M153 133c15 20 54 20 70 0l-7 32c-15 12-43 12-57 0z" fill="#f1c0af"/>
  <circle cx="171" cy="91" r="4" fill="#5d463e"/>
  <circle cx="207" cy="91" r="4" fill="#5d463e"/>
  <path d="M174 113c12 10 27 10 39 0" fill="none" stroke="#a66d62" stroke-width="4" stroke-linecap="round"/>
  <rect x="0" y="0" width="320" height="220" fill="none" stroke="#eadfd6" stroke-width="10"/>
</svg>
