<svg xmlns="http://www.w3.org/2000/svg" viewBox="0 0 320 220" role="img" aria-labelledby="title">
  <title id="title">お客様の写真イメージ</title>
  <defs>
    <linearGradient id="bg" x1="0" x2="1" y1="0" y2="1">
      <stop offset="0" stop-color="#fff8fb"/>
      <stop offset="1" stop-color="#dde8f1"/>
    </linearGradient>
  </defs>
  <rect width="320" height="220" fill="url(#bg)"/>
  <circle cx="166" cy="78" r="36" fill="#f0bda6"/>
  <path d="M122 78c9-35 40-56 74-41 25 12 33 43 16 78-27 0-62-8-90-37z" fill="#8b5c47"/>
  <path d="M75 220c11-58 49-90 96-90 48 0 84 32 97 90z" fill="#fff"/>
  <path d="M129 154c21 18 61 18 82 0 18 14 33 36 41 66H92c8-30 21-52 37-66z" fill="#f7e9e2"/>
  <path d="M144 131c13 19 46 19 60 0l-5 30c-12 12-38 12-50 0z" fill="#f0bda6"/>
  <circle cx="151" cy="86" r="4" fill="#5d463e"/>
  <circle cx="183" cy="86" r="4" fill="#5d463e"/>
  <path d="M153 108c10 9 25 9 35 0" fill="none" stroke="#a66d62" stroke-width="4" stroke-linecap="round"/>
  <rect x="0" y="0" width="320" height="220" fill="none" stroke="#eadfd6" stroke-width="10"/>
</svg>
