<svg xmlns="http://www.w3.org/2000/svg" viewBox="0 0 320 220" role="img" aria-labelledby="title">
  <title id="title">お客様の写真イメージ</title>
  <defs>
    <linearGradient id="bg" x1="0" x2="1" y1="0" y2="1">
      <stop offset="0" stop-color="#f7fbff"/>
      <stop offset="1" stop-color="#fff2ec"/>
    </linearGradient>
  </defs>
  <rect width="320" height="220" fill="url(#bg)"/>
  <circle cx="164" cy="74" r="36" fill="#edb99e"/>
  <path d="M123 73c6-33 31-51 64-43 25 6 38 32 31 65-29 6-68 2-95-22z" fill="#3f3939"/>
  <path d="M75 220c13-59 49-93 91-93 43 0 78 34 93 93z" fill="#3e4750"/>
  <path d="M133 151c18 18 48 18 66 0 18 16 32 39 39 69H96c8-30 21-53 37-69z" fill="#2f3740"/>
  <path d="M145 128c13 18 40 18 53 0l-5 29c-11 11-32 11-43 0z" fill="#edb99e"/>
  <path d="M156 158h18l-8 44z" fill="#ffffff"/>
  <circle cx="151" cy="82" r="4" fill="#4e3b35"/>
  <circle cx="180" cy="82" r="4" fill="#4e3b35"/>
  <path d="M153 103c9 8 23 8 32 0" fill="none" stroke="#a66d62" stroke-width="4" stroke-linecap="round"/>
  <rect x="0" y="0" width="320" height="220" fill="none" stroke="#eadfd6" stroke-width="10"/>
</svg>
