<svg xmlns="http://www.w3.org/2000/svg" viewBox="0 0 320 220" role="img" aria-labelledby="title">
  <title id="title">お客様の写真イメージ</title>
  <defs>
    <linearGradient id="bg" x1="0" x2="1" y1="0" y2="1">
      <stop offset="0" stop-color="#eef7f4"/>
      <stop offset="1" stop-color="#fff3ed"/>
    </linearGradient>
  </defs>
  <rect width="320" height="220" fill="url(#bg)"/>
  <rect x="0" y="132" width="320" height="88" fill="#d9c2a8" opacity=".35"/>
  <circle cx="162" cy="78" r="36" fill="#efbea9"/>
  <path d="M114 93c2-51 28-72 70-62 30 8 40 40 21 83-31 1-64-1-91-21z" fill="#7a4f3a"/>
  <path d="M72 220c17-58 50-88 91-88 43 0 74 30 91 88z" fill="#f8faf5"/>
  <path d="M125 152c19 20 57 20 76 0 18 14 32 37 40 68H85c9-31 23-54 40-68z" fill="#fff"/>
  <path d="M132 89c-21 12-44 16-67 13" fill="none" stroke="#c2a98a" stroke-width="8" stroke-linecap="round"/>
  <path d="M211 90c22 10 42 12 61 9" fill="none" stroke="#c2a98a" stroke-width="8" stroke-linecap="round"/>
  <circle cx="147" cy="85" r="4" fill="#5d463e"/>
  <circle cx="179" cy="85" r="4" fill="#5d463e"/>
  <path d="M151 106c10 8 24 8 34 0" fill="none" stroke="#a66d62" stroke-width="4" stroke-linecap="round"/>
  <rect x="0" y="0" width="320" height="220" fill="none" stroke="#eadfd6" stroke-width="10"/>
</svg>
